<svg width="415" height="253" viewBox="0 0 415 253" fill="none" xmlns="http://www.w3.org/2000/svg">
<path d="M65.3376 112.551C68.0669 117.233 69.4315 121.753 69.4315 126.109C69.4315 127.089 69.3223 127.96 69.104 128.722C68.9948 129.594 68.8311 130.465 68.6127 131.336C66.7568 131.118 64.7918 130.955 62.7176 130.846C60.7525 130.737 58.6783 130.683 56.495 130.683C53.8749 130.683 51.2003 130.737 48.471 130.846C45.851 131.064 42.9034 131.336 39.6283 131.663C36.3533 131.989 32.6961 132.425 28.6569 132.969C24.6176 133.514 19.9233 134.222 14.5741 135.093C12.0632 134.222 9.55229 132.479 7.0414 129.866C4.53051 127.361 2.18338 124.312 0 120.718C1.09169 118.322 2.4563 115.382 4.09384 111.897C5.73137 108.303 7.64183 104.002 9.82521 98.9925C12.0086 93.8742 14.4103 87.9391 17.0304 81.1873C19.7596 74.3265 22.6526 66.4312 25.7093 57.5014C27.6743 51.6208 29.3665 46.448 30.7857 41.9831C32.2049 37.5182 33.4603 33.2166 34.552 29.0784C35.7528 24.8313 36.8991 20.4208 37.9908 15.847C39.0825 11.2732 40.2834 5.99148 41.5934 0.00195312C45.9602 0.873159 49.7265 2.50667 52.8924 4.90248C56.1674 7.18939 59.2788 10.5108 62.2263 14.8669C61.353 16.2826 60.2067 18.5695 58.7875 21.7276C57.3683 24.8857 55.6762 28.7517 53.7111 33.3255C51.8553 37.7904 49.7811 42.9087 47.4885 48.6805C45.196 54.3433 42.7943 60.4417 40.2834 66.9757C37.8816 73.4009 35.5345 79.4448 33.242 85.1077C30.9494 90.7705 28.8752 95.8888 27.0193 100.463C25.2726 105.036 23.8534 108.957 22.7617 112.224C21.67 115.491 21.1242 117.941 21.1242 119.575C22.8709 119.466 24.4539 119.357 25.8731 119.248C27.2922 119.139 28.766 118.976 30.2944 118.758C31.8228 118.431 33.4603 118.105 35.207 117.778C37.0629 117.342 39.2463 116.798 41.7571 116.144C43.9405 115.6 45.9601 115.164 47.816 114.838C49.6719 114.402 51.4732 114.075 53.2199 113.857C55.0758 113.531 56.9316 113.313 58.7875 113.204C60.7526 112.986 62.9359 112.768 65.3376 112.551Z" fill="#E5E1E6"/>
<path d="M116.559 118.268C114.485 116.525 113.066 114.347 112.302 111.734C111.647 109.12 111.319 106.888 111.319 105.036C111.319 102.75 111.592 100.789 112.138 99.1558C111.701 99.1558 110.719 100.027 109.19 101.769C107.662 103.512 105.97 105.581 104.114 107.977C102.367 110.373 100.621 112.714 98.8738 115.001C97.1271 117.288 95.8171 118.976 94.9438 120.065C93.5246 121.589 92.16 122.787 90.8499 123.658C89.6491 124.53 88.6665 125.02 87.9024 125.129C86.1557 125.02 84.2998 124.639 82.3347 123.985C80.4789 123.441 78.6776 122.624 76.9309 121.535C75.2934 120.446 73.8196 119.139 72.5095 117.614C71.3087 116.09 70.4899 114.347 70.0532 112.387C70.0532 109.338 70.1078 106.833 70.217 104.873C70.4353 102.913 70.8174 100.789 71.3633 98.5024C72.3458 94.3642 73.765 89.6815 75.6208 84.4543C77.5859 79.227 79.8239 74.1087 82.3347 69.0993C84.8456 63.981 87.6294 59.2438 90.6862 54.8878C93.8521 50.4229 97.1817 46.9381 100.675 44.4333C101.658 44.4333 102.804 44.5422 104.114 44.76C105.424 44.8689 106.734 45.1412 108.044 45.5768C109.463 46.0124 110.773 46.5569 111.974 47.2103C113.284 47.7548 114.376 48.5171 115.249 49.4972C114.267 50.5862 111.756 54.2344 107.717 60.4417C103.786 66.649 99.3651 75.5789 94.4525 87.2312C93.9067 88.4291 93.2516 90.1715 92.4875 92.4585C91.7233 94.7454 90.9591 97.1412 90.1949 99.6459C89.4307 102.151 88.7757 104.601 88.2299 106.997C87.7932 109.392 87.5749 111.298 87.5749 112.714C87.5749 113.585 87.684 114.239 87.9024 114.674C88.2299 115.11 88.5028 115.436 88.7211 115.654C90.3587 115.001 92.4329 113.204 94.9438 110.264C97.4547 107.323 100.948 102.804 105.424 96.7056C106.516 95.181 107.771 93.4386 109.19 91.4783C110.719 89.5181 112.247 87.449 113.775 85.271C115.304 82.9841 116.723 80.6428 118.033 78.2469C119.452 75.8511 120.598 73.4553 121.472 71.0595C121.909 69.7527 122.454 68.2281 123.109 66.4857C123.874 64.6344 124.747 62.7286 125.729 60.7684C126.821 58.8082 128.022 56.848 129.332 54.8878C130.751 52.8187 132.389 50.9129 134.245 49.1705C135.664 49.1705 137.192 49.3339 138.83 49.6606C140.467 49.9873 141.996 50.4229 143.415 50.9674C144.943 51.403 146.253 51.9475 147.345 52.6009C148.437 53.1454 149.255 53.7443 149.801 54.3977C147.836 59.1894 145.653 63.9265 143.251 68.6093C140.849 73.292 138.611 77.9202 136.537 82.4941C134.463 86.959 132.716 91.4239 131.297 95.8888C129.878 100.354 129.168 104.71 129.168 108.957C129.168 111.244 129.332 113.258 129.66 115.001C130.096 116.634 130.533 118.05 130.97 119.248C131.406 120.337 131.788 121.263 132.116 122.025C132.552 122.787 132.771 123.441 132.771 123.985C132.771 124.094 132.662 124.257 132.443 124.475C132.334 124.584 132.225 124.639 132.116 124.639C131.352 124.639 130.369 124.475 129.168 124.148C127.967 123.822 126.603 123.332 125.074 122.678C123.655 122.134 122.181 121.48 120.653 120.718C119.234 119.956 117.869 119.139 116.559 118.268Z" fill="#E5E1E6"/>
<path d="M195.675 120.881C194.474 122.733 192.564 124.203 189.944 125.292C187.433 126.49 185.031 127.198 182.739 127.415C180.883 125.237 178.809 122.297 176.516 118.595C174.223 114.783 172.04 110.373 169.966 105.363C164.398 110.373 158.831 114.946 153.263 119.085C147.695 123.114 142.51 126.544 137.706 129.376C136.506 129.158 135.523 128.505 134.759 127.415C133.995 126.326 133.558 124.911 133.449 123.168C135.632 121.97 138.198 120.391 141.145 118.431C144.202 116.471 147.259 114.347 150.315 112.061C153.481 109.665 156.484 107.214 159.322 104.71C162.269 102.096 164.78 99.5914 166.855 97.1956C164.999 92.8396 163.252 88.3747 161.614 83.8009C160.086 79.1181 158.721 74.6532 157.521 70.4061C156.429 66.0501 155.556 62.1297 154.901 58.6449C154.246 55.0511 153.918 52.1653 153.918 49.9873C153.918 48.4627 154.082 47.4826 154.409 47.047C154.846 46.5025 155.774 46.2302 157.193 46.2302C158.285 46.2302 159.595 46.3391 161.123 46.5569C162.761 46.7747 164.398 47.047 166.036 47.3737C167.673 47.7004 169.311 48.0815 170.948 48.5171C172.586 48.8438 174.005 49.225 175.206 49.6606C174.988 50.8585 174.878 51.893 174.878 52.7642C174.878 53.6354 174.878 54.8878 174.878 56.5213C174.878 60.7684 175.206 65.1244 175.861 69.5893C176.625 73.9454 177.826 78.6825 179.464 83.8009C183.94 78.6825 188.088 73.0197 191.909 66.8124C195.73 60.4962 199.605 52.982 203.535 44.27C206.265 44.8145 208.612 45.6313 210.577 46.7203C212.542 47.7004 213.797 48.7894 214.343 49.9873C213.142 54.9967 209.758 61.3129 204.19 68.936C198.623 76.559 191.527 84.6721 182.902 93.2752C184.431 97.4134 186.287 101.824 188.47 106.507C190.653 111.08 193.055 115.872 195.675 120.881Z" fill="#E5E1E6"/>
<path d="M250.025 118.268C247.951 116.525 246.531 114.347 245.767 111.734C245.112 109.12 244.785 106.888 244.785 105.036C244.785 102.75 245.058 100.789 245.603 99.1558C245.167 99.1558 244.184 100.027 242.656 101.769C241.127 103.512 239.435 105.581 237.579 107.977C235.833 110.373 234.086 112.714 232.339 115.001C230.593 117.288 229.283 118.976 228.409 120.065C226.99 121.589 225.625 122.787 224.315 123.658C223.115 124.53 222.132 125.02 221.368 125.129C219.621 125.02 217.765 124.639 215.8 123.985C213.944 123.441 212.143 122.624 210.396 121.535C208.759 120.446 207.285 119.139 205.975 117.614C204.774 116.09 203.955 114.347 203.519 112.387C203.519 109.338 203.573 106.833 203.682 104.873C203.901 102.913 204.283 100.789 204.829 98.5024C205.811 94.3642 207.23 89.6815 209.086 84.4543C211.051 79.227 213.289 74.1087 215.8 69.0993C218.311 63.981 221.095 59.2438 224.152 54.8878C227.318 50.4229 230.647 46.9381 234.141 44.4333C235.123 44.4333 236.269 44.5422 237.579 44.76C238.889 44.8689 240.2 45.1412 241.51 45.5768C242.929 46.0124 244.239 46.5569 245.44 47.2103C246.75 47.7548 247.841 48.5171 248.715 49.4972C247.732 50.5862 245.221 54.2344 241.182 60.4417C237.252 66.649 232.831 75.5789 227.918 87.2312C227.372 88.4291 226.717 90.1715 225.953 92.4585C225.189 94.7454 224.425 97.1412 223.66 99.6459C222.896 102.151 222.241 104.601 221.695 106.997C221.259 109.392 221.04 111.298 221.04 112.714C221.04 113.585 221.15 114.239 221.368 114.674C221.695 115.11 221.968 115.436 222.187 115.654C223.824 115.001 225.898 113.204 228.409 110.264C230.92 107.323 234.414 102.804 238.889 96.7056C239.981 95.181 241.237 93.4386 242.656 91.4783C244.184 89.5181 245.713 87.449 247.241 85.271C248.769 82.9841 250.188 80.6428 251.499 78.2469C252.918 75.8511 254.064 73.4553 254.937 71.0595C255.374 69.7527 255.92 68.2281 256.575 66.4857C257.339 64.6344 258.212 62.7286 259.195 60.7684C260.287 58.8082 261.487 56.848 262.797 54.8878C264.217 52.8187 265.854 50.9129 267.71 49.1705C269.129 49.1705 270.658 49.3339 272.295 49.6606C273.933 49.9873 275.461 50.4229 276.88 50.9674C278.409 51.403 279.719 51.9475 280.81 52.6009C281.902 53.1454 282.721 53.7443 283.267 54.3977C281.302 59.1894 279.118 63.9265 276.717 68.6093C274.315 73.292 272.077 77.9202 270.003 82.4941C267.928 86.959 266.182 91.4239 264.763 95.8888C263.343 100.354 262.634 104.71 262.634 108.957C262.634 111.244 262.797 113.258 263.125 115.001C263.562 116.634 263.998 118.05 264.435 119.248C264.872 120.337 265.254 121.263 265.581 122.025C266.018 122.787 266.236 123.441 266.236 123.985C266.236 124.094 266.127 124.257 265.909 124.475C265.8 124.584 265.69 124.639 265.581 124.639C264.817 124.639 263.835 124.475 262.634 124.148C261.433 123.822 260.068 123.332 258.54 122.678C257.121 122.134 255.647 121.48 254.119 120.718C252.699 119.956 251.335 119.139 250.025 118.268Z" fill="#E5E1E6"/>
<path d="M274.283 118.595C274.829 115.436 275.757 111.298 277.067 106.18C278.486 100.953 280.124 95.4532 281.98 89.6815C283.836 83.8009 285.801 77.9202 287.875 72.0396C289.949 66.159 291.969 60.8773 293.934 56.1946C295.353 52.8187 296.608 50.2051 297.7 48.3538C298.792 46.3936 299.993 44.76 301.303 43.4532C302.831 43.671 304.414 44.0522 306.051 44.5967C307.689 45.1412 309.272 45.7946 310.8 46.5569C312.329 47.3192 313.693 48.136 314.894 49.0072C316.095 49.7695 317.023 50.5318 317.678 51.2941C314.73 54.7789 312.11 58.7538 309.818 63.2187C307.634 67.6836 305.396 73.4009 303.104 80.3705C308.999 75.1433 314.185 70.1339 318.66 65.3422C323.246 60.5506 327.503 55.2145 331.433 49.3339C332.088 48.7894 333.235 48.5171 334.872 48.5171C336.4 48.5171 337.874 48.7894 339.293 49.3339C340.713 49.7695 341.695 50.4229 342.241 51.2941C340.276 56.5213 339.293 61.6941 339.293 66.8124C339.293 71.604 340.003 75.1977 341.422 77.5935C341.313 78.2469 340.549 79.4993 339.13 81.3506C337.82 83.2019 336.346 84.9443 334.708 86.5778C331.761 85.0532 329.141 82.9841 326.848 80.3705C324.556 77.648 322.863 74.7077 321.772 71.5496C316.641 75.1433 312.274 78.6825 308.671 82.1674C305.069 85.5433 301.958 89.3548 299.338 93.6019C296.827 97.7401 294.643 102.532 292.787 107.977C291.041 113.422 289.349 119.901 287.711 127.415C286.729 127.307 285.528 126.925 284.108 126.272C282.798 125.728 281.434 125.02 280.015 124.148C278.705 123.277 277.504 122.352 276.412 121.372C275.32 120.391 274.611 119.466 274.283 118.595Z" fill="#E5E1E6"/>
<path d="M397.642 96.5422C395.131 104.492 392.62 111.734 390.109 118.268C387.599 124.802 384.924 130.791 382.086 136.236C379.247 141.79 376.19 146.854 372.915 151.428C369.64 156.111 366.038 160.521 362.108 164.659C357.086 169.887 351.9 173.862 346.551 176.584C341.202 179.415 335.852 180.831 330.503 180.831C327.774 180.831 325.045 180.504 322.315 179.851C319.695 179.307 317.239 178.49 314.947 177.401C312.545 176.421 310.471 175.223 308.724 173.807C306.868 172.5 305.558 171.085 304.794 169.56C304.794 168.253 305.558 167.11 307.086 166.13C308.396 167.328 309.488 168.253 310.361 168.907C311.235 169.56 312.108 170.104 312.982 170.54C313.746 170.976 314.619 171.248 315.602 171.357C316.475 171.466 317.512 171.52 318.713 171.52C324.936 171.52 330.994 169.669 336.89 165.966C342.894 162.373 348.516 157.2 353.756 150.448C359.105 143.805 363.963 135.692 368.33 126.109C372.697 116.634 376.409 106.017 379.465 94.2553C378.046 96.4333 376.3 99.1014 374.225 102.259C372.151 105.418 369.859 108.576 367.348 111.734C364.837 114.783 362.217 117.56 359.488 120.065C356.867 122.569 354.302 124.257 351.791 125.129C350.044 125.02 348.189 124.639 346.224 123.985C344.368 123.441 342.566 122.624 340.82 121.535C339.182 120.446 337.708 119.139 336.398 117.614C335.088 116.09 334.215 114.347 333.778 112.387C333.778 109.229 333.887 106.724 334.106 104.873C334.324 102.913 334.706 100.789 335.252 98.5024C336.235 94.3642 337.654 89.6815 339.51 84.4543C341.475 79.227 343.713 74.1087 346.224 69.0993C348.844 63.981 351.682 59.2438 354.739 54.8878C357.905 50.4229 361.18 46.9381 364.564 44.4333C365.437 44.4333 366.529 44.5422 367.839 44.76C369.149 44.8689 370.514 45.1412 371.933 45.5768C373.352 46.0124 374.717 46.5569 376.027 47.2103C377.337 47.7548 378.483 48.5171 379.465 49.4972C378.265 50.5862 375.645 54.2344 371.605 60.4417C367.566 66.649 363.09 75.5789 358.177 87.2312C357.632 88.4291 356.977 90.1715 356.212 92.4585C355.448 94.7454 354.684 97.1412 353.92 99.6459C353.265 102.151 352.664 104.601 352.119 106.997C351.573 109.392 351.3 111.298 351.3 112.714C351.3 113.585 351.409 114.239 351.627 114.674C351.955 115.11 352.228 115.436 352.446 115.654C354.411 115.328 357.031 113.748 360.306 110.917C363.581 107.977 367.293 103.457 371.442 97.359C374.062 93.4386 376.463 89.5726 378.647 85.7611C380.83 81.8407 382.959 77.9202 385.033 73.9998C387.216 70.0794 389.454 66.0501 391.747 61.9119C394.04 57.7737 396.496 53.5265 399.116 49.1705C400.535 49.1705 402.063 49.3339 403.701 49.6606C405.339 49.9873 406.921 50.4229 408.45 50.9674C409.978 51.403 411.288 51.9475 412.38 52.6009C413.581 53.1454 414.454 53.7443 415 54.3977C411.616 61.5852 408.45 68.6092 405.502 75.47C402.555 82.3307 399.935 89.3548 397.642 96.5422Z" fill="#E5E1E6"/>
<path d="M168.199 176.844C168.199 181.348 167.049 185.647 164.75 189.742C162.533 193.836 159.495 197.439 155.635 200.551C151.858 203.581 147.382 205.997 142.209 207.798C137.117 209.6 131.697 210.501 125.949 210.501C123.896 210.501 122.254 210.255 121.022 209.764C119.872 209.191 118.558 208.126 117.08 206.57C112.974 215.496 109.608 223.726 106.98 231.26C104.434 238.712 102.422 245.959 100.944 253.002C97.8236 252.265 95.2779 250.955 93.307 249.071C91.3362 247.27 89.5296 244.977 87.8872 242.192C88.7084 240.636 89.6938 238.589 90.8435 236.051C91.9931 233.512 93.3891 230.4 95.0315 226.715C96.6739 222.948 98.5626 218.485 100.698 213.326C102.915 208.085 105.502 201.984 108.458 195.023C109.772 191.83 110.921 189.045 111.907 186.671C112.892 184.296 113.755 182.085 114.494 180.038C115.233 177.908 115.89 175.82 116.464 173.773C117.121 171.726 117.778 169.474 118.435 167.017C114.576 168.245 111.004 169.678 107.719 171.316C104.516 172.954 101.847 174.674 99.7123 176.475C98.9732 175.984 98.1931 175.247 97.3719 174.264C96.6328 173.282 95.9348 172.217 95.2779 171.071C94.6209 169.842 94.0461 168.614 93.5534 167.385C93.0607 166.157 92.7733 165.052 92.6911 164.069C95.0726 162.431 98.0288 160.916 101.56 159.524C105.091 158.132 108.868 156.944 112.892 155.962C116.916 154.897 121.063 154.078 125.333 153.505C129.686 152.932 133.833 152.645 137.774 152.645C142.455 152.645 146.684 153.259 150.462 154.488C154.239 155.634 157.442 157.272 160.069 159.401C162.697 161.53 164.709 164.069 166.105 167.017C167.501 169.965 168.199 173.241 168.199 176.844ZM146.273 162.104C143.153 162.104 139.95 162.349 136.666 162.841L138.144 165.052C137.323 166.116 136.296 167.713 135.064 169.842C133.833 171.971 132.478 174.551 130.999 177.581C129.521 180.529 127.879 183.845 126.072 187.531C124.348 191.216 122.5 195.105 120.529 199.2C126.935 199.2 132.765 198.627 138.021 197.48C143.276 196.252 147.752 194.614 151.447 192.567C155.224 190.438 158.14 187.981 160.193 185.197C162.328 182.412 163.395 179.423 163.395 176.23C163.395 171.971 161.958 168.573 159.084 166.034C156.21 163.414 151.94 162.104 146.273 162.104Z" fill="#E5E1E6"/>
<path d="M156.571 235.191C156.571 231.588 157.434 226.551 159.158 220.082C160.883 213.531 163.305 205.915 166.426 197.235C171.517 183.395 176.28 171.889 180.714 162.718C185.231 153.464 189.624 146.258 193.894 141.099C194.88 141.262 196.07 141.672 197.466 142.327C198.945 142.982 200.382 143.719 201.778 144.538C203.174 145.275 204.405 146.053 205.473 146.872C206.623 147.691 207.362 148.346 207.69 148.837C201.285 156.371 195.66 164.478 190.815 173.159C185.97 181.839 181.535 191.789 177.512 203.008C174.063 212.671 171.435 221.392 169.628 229.172C167.822 236.87 166.918 243.298 166.918 248.457C166.918 249.849 166.918 250.709 166.918 251.037C166.918 251.364 166.959 251.692 167.041 252.019C165.892 251.855 164.906 251.569 164.085 251.159C163.264 250.75 162.73 250.259 162.484 249.685C162.32 249.276 161.868 248.662 161.129 247.843C160.39 247.106 159.733 246.533 159.158 246.123C158.419 245.632 157.803 244.362 157.31 242.315C156.818 240.186 156.571 237.811 156.571 235.191Z" fill="#E5E1E6"/>
<path d="M213.15 240.35C211.59 239.04 210.523 237.402 209.948 235.436C209.455 233.471 209.209 231.792 209.209 230.4C209.209 228.68 209.414 227.206 209.825 225.978C209.496 225.978 208.757 226.633 207.607 227.943C206.458 229.254 205.185 230.81 203.789 232.611C202.475 234.413 201.161 236.173 199.847 237.893C198.533 239.613 197.548 240.882 196.891 241.701C195.823 242.848 194.797 243.748 193.811 244.403C192.908 245.059 192.169 245.427 191.594 245.509C190.28 245.427 188.884 245.14 187.406 244.649C186.01 244.24 184.655 243.625 183.341 242.807C182.11 241.988 181.001 241.005 180.016 239.859C179.112 238.712 178.496 237.402 178.168 235.928C178.168 233.635 178.209 231.751 178.291 230.277C178.455 228.803 178.743 227.206 179.153 225.487C179.892 222.375 180.96 218.854 182.356 214.923C183.834 210.992 185.517 207.143 187.406 203.376C189.295 199.527 191.389 195.965 193.688 192.69C196.07 189.332 198.574 186.712 201.202 184.828C201.941 184.828 202.803 184.91 203.789 185.074C204.774 185.156 205.76 185.36 206.745 185.688C207.813 186.016 208.798 186.425 209.701 186.916C210.687 187.326 211.508 187.899 212.165 188.636C211.426 189.455 209.537 192.198 206.499 196.866C203.543 201.534 200.217 208.249 196.521 217.011C196.111 217.912 195.618 219.222 195.043 220.942C194.468 222.662 193.894 224.463 193.319 226.347C192.744 228.23 192.251 230.073 191.841 231.874C191.512 233.676 191.348 235.109 191.348 236.173C191.348 236.829 191.43 237.32 191.594 237.647C191.841 237.975 192.046 238.221 192.21 238.384C193.442 237.893 195.002 236.542 196.891 234.331C198.78 232.12 201.407 228.721 204.774 224.136C205.595 222.989 206.54 221.679 207.607 220.205C208.757 218.731 209.907 217.175 211.056 215.537C212.206 213.817 213.274 212.057 214.259 210.255C215.327 208.454 216.189 206.652 216.846 204.85C217.174 203.868 217.585 202.721 218.077 201.411C218.652 200.019 219.309 198.586 220.048 197.112C220.87 195.638 221.773 194.164 222.758 192.69C223.826 191.134 225.058 189.701 226.454 188.39C227.521 188.39 228.671 188.513 229.903 188.759C231.134 189.005 232.284 189.332 233.352 189.742C234.501 190.069 235.487 190.479 236.308 190.97C237.129 191.379 237.745 191.83 238.155 192.321C236.677 195.924 235.035 199.487 233.228 203.008C231.422 206.529 229.738 210.009 228.178 213.449C226.618 216.806 225.304 220.164 224.236 223.521C223.169 226.879 222.635 230.154 222.635 233.348C222.635 235.068 222.758 236.583 223.005 237.893C223.333 239.122 223.662 240.186 223.99 241.087C224.318 241.906 224.606 242.602 224.852 243.175C225.181 243.748 225.345 244.24 225.345 244.649C225.345 244.731 225.263 244.854 225.099 245.018C225.017 245.099 224.934 245.14 224.852 245.14C224.277 245.14 223.538 245.018 222.635 244.772C221.732 244.526 220.705 244.158 219.556 243.666C218.488 243.257 217.379 242.766 216.23 242.192C215.162 241.619 214.136 241.005 213.15 240.35Z" fill="#E5E1E6"/>
<path d="M305.07 205.342C303.756 205.424 302.155 206.283 300.266 207.921C298.377 209.477 296.324 211.524 294.107 214.063C291.972 216.52 289.714 219.263 287.332 222.293C285.033 225.323 282.775 228.353 280.558 231.383C278.422 234.331 276.411 237.115 274.522 239.736C272.633 242.356 271.032 244.444 269.718 246C267.911 245.263 266.351 244.199 265.037 242.807C263.723 241.333 262.779 239.531 262.204 237.402C262.615 234.863 263.189 232.243 263.929 229.54C264.668 226.756 265.612 223.89 266.762 220.942C267.993 217.994 269.472 214.923 271.196 211.729C273.003 208.454 275.179 205.014 277.724 201.411C276.493 201.493 274.809 202.394 272.674 204.113C270.539 205.751 268.24 207.921 265.776 210.624C263.313 213.244 260.767 216.233 258.139 219.591C255.511 222.866 253.048 226.101 250.748 229.295C247.71 233.553 245.164 237.279 243.111 240.473C241.141 243.666 239.704 245.55 238.8 246.123C236.665 244.567 235.187 242.888 234.366 241.087C233.545 239.285 232.929 237.279 232.518 235.068C232.6 233.103 232.888 230.646 233.38 227.698C233.955 224.75 234.735 221.72 235.721 218.608C237.609 212.63 240.032 206.693 242.988 200.797C246.027 194.901 248.942 189.496 251.734 184.582C254.033 185.074 256.086 185.852 257.893 186.916C259.782 187.981 261.752 189.537 263.805 191.584C262.984 194.123 261.711 196.825 259.987 199.691C258.262 202.476 256.456 205.424 254.567 208.535C252.678 211.647 250.954 214.841 249.394 218.117C247.833 221.392 246.807 224.709 246.314 228.066C248.613 224.791 251.323 221.024 254.444 216.765C257.646 212.507 260.89 208.494 264.175 204.728C267.542 200.961 270.868 197.767 274.152 195.146C277.437 192.526 280.393 191.216 283.021 191.216C284.007 191.216 285.074 191.379 286.224 191.707C287.373 192.034 288.441 192.444 289.426 192.935C290.412 193.427 291.233 193.918 291.89 194.409C292.547 194.819 292.916 195.146 292.998 195.392C292.588 197.03 291.602 199.282 290.042 202.148C288.564 204.932 286.963 207.88 285.238 210.992C283.514 214.104 281.912 217.134 280.434 220.082C278.956 222.948 278.094 225.241 277.848 226.961C281.871 221.474 285.649 216.52 289.18 212.098C292.711 207.594 296.037 203.745 299.157 200.551C302.278 197.357 305.152 194.901 307.78 193.181C310.49 191.461 313.035 190.601 315.417 190.601C317.059 190.601 318.578 191.052 319.974 191.953C321.453 192.772 322.479 194 323.054 195.638C322.315 198.094 321.083 201.042 319.359 204.482C317.716 207.921 316.033 211.565 314.308 215.414C312.584 219.181 311.023 222.907 309.627 226.592C308.314 230.277 307.657 233.594 307.657 236.542C307.657 238.262 307.903 239.408 308.396 239.981C308.888 240.473 309.586 240.718 310.49 240.718C311.475 240.718 312.378 240.555 313.2 240.227C314.103 239.818 314.76 239.613 315.17 239.613C315.663 239.94 315.951 240.35 316.033 240.841C316.115 241.333 316.156 241.783 316.156 242.192C314.514 243.503 312.83 244.567 311.106 245.386C309.381 246.287 307.451 246.737 305.316 246.737C303.345 246.737 301.703 246.41 300.389 245.755C299.157 245.1 298.131 244.199 297.31 243.052C296.489 241.906 295.914 240.596 295.585 239.121C295.257 237.647 295.092 236.051 295.092 234.331C295.092 231.547 295.462 228.803 296.201 226.101C296.94 223.317 297.802 220.696 298.788 218.239C299.855 215.701 300.964 213.367 302.114 211.238C303.263 209.027 304.249 207.061 305.07 205.342Z" fill="#E5E1E6"/>
</svg>
